<?xml version="1.0" encoding="UTF-8" standalone="no"?>
<!DOCTYPE svg PUBLIC "-//W3C//DTD SVG 1.1//EN"
 "http://www.w3.org/Graphics/SVG/1.1/DTD/svg11.dtd">
<!-- Generated by graphviz version 2.42.3 (20191010.1750)
 -->
<!-- Title: Tree Pages: 1 -->
<svg width="954pt" height="373pt"
 viewBox="0.00 0.00 953.50 373.00" xmlns="http://www.w3.org/2000/svg" xmlns:xlink="http://www.w3.org/1999/xlink">
<g id="graph0" class="graph" transform="scale(1 1) rotate(0) translate(4 369)">
<title>Tree</title>
<polygon fill="white" stroke="transparent" points="-4,4 -4,-369 949.5,-369 949.5,4 -4,4"/>
<!-- 0 -->
<g id="node1" class="node">
<title>0</title>
<path fill="#f8ddca" stroke="black" d="M497.5,-365C497.5,-365 413.5,-365 413.5,-365 407.5,-365 401.5,-359 401.5,-353 401.5,-353 401.5,-309 401.5,-309 401.5,-303 407.5,-297 413.5,-297 413.5,-297 497.5,-297 497.5,-297 503.5,-297 509.5,-303 509.5,-309 509.5,-309 509.5,-353 509.5,-353 509.5,-359 503.5,-365 497.5,-365"/>
<text text-anchor="start" x="409.5" y="-349.8" font-family="Helvetica,sans-Serif" font-size="14.00">LSTAT ≤ 9.725</text>
<text text-anchor="start" x="413.5" y="-334.8" font-family="Helvetica,sans-Serif" font-size="14.00">mse = 80.781</text>
<text text-anchor="start" x="410.5" y="-319.8" font-family="Helvetica,sans-Serif" font-size="14.00">samples = 404</text>
<text text-anchor="start" x="410.5" y="-304.8" font-family="Helvetica,sans-Serif" font-size="14.00">value = 22.522</text>
</g>
<!-- 1 -->
<g id="node2" class="node">
<title>1</title>
<path fill="#f3c5a4" stroke="black" d="M379.5,-261C379.5,-261 297.5,-261 297.5,-261 291.5,-261 285.5,-255 285.5,-249 285.5,-249 285.5,-205 285.5,-205 285.5,-199 291.5,-193 297.5,-193 297.5,-193 379.5,-193 379.5,-193 385.5,-193 391.5,-199 391.5,-205 391.5,-205 391.5,-249 391.5,-249 391.5,-255 385.5,-261 379.5,-261"/>
<text text-anchor="start" x="302.5" y="-245.8" font-family="Helvetica,sans-Serif" font-size="14.00">RM ≤ 7.437</text>
<text text-anchor="start" x="296.5" y="-230.8" font-family="Helvetica,sans-Serif" font-size="14.00">mse = 73.352</text>
<text text-anchor="start" x="293.5" y="-215.8" font-family="Helvetica,sans-Serif" font-size="14.00">samples = 169</text>
<text text-anchor="start" x="293.5" y="-200.8" font-family="Helvetica,sans-Serif" font-size="14.00">value = 29.659</text>
</g>
<!-- 0&#45;&gt;1 -->
<g id="edge1" class="edge">
<title>0&#45;&gt;1</title>
<path fill="none" stroke="black" d="M417.51,-296.88C406.99,-287.71 395.45,-277.65 384.52,-268.12"/>
<polygon fill="black" stroke="black" points="386.53,-265.23 376.7,-261.3 381.93,-270.51 386.53,-265.23"/>
<text text-anchor="middle" x="378.4" y="-282.54" font-family="Helvetica,sans-Serif" font-size="14.00">True</text>
</g>
<!-- 8 -->
<g id="node9" class="node">
<title>8</title>
<path fill="#fcefe5" stroke="black" d="M627.5,-261C627.5,-261 535.5,-261 535.5,-261 529.5,-261 523.5,-255 523.5,-249 523.5,-249 523.5,-205 523.5,-205 523.5,-199 529.5,-193 535.5,-193 535.5,-193 627.5,-193 627.5,-193 633.5,-193 639.5,-199 639.5,-205 639.5,-205 639.5,-249 639.5,-249 639.5,-255 633.5,-261 627.5,-261"/>
<text text-anchor="start" x="531.5" y="-245.8" font-family="Helvetica,sans-Serif" font-size="14.00">LSTAT ≤ 16.085</text>
<text text-anchor="start" x="539.5" y="-230.8" font-family="Helvetica,sans-Serif" font-size="14.00">mse = 23.162</text>
<text text-anchor="start" x="536.5" y="-215.8" font-family="Helvetica,sans-Serif" font-size="14.00">samples = 235</text>
<text text-anchor="start" x="540.5" y="-200.8" font-family="Helvetica,sans-Serif" font-size="14.00">value = 17.39</text>
</g>
<!-- 0&#45;&gt;8 -->
<g id="edge8" class="edge">
<title>0&#45;&gt;8</title>
<path fill="none" stroke="black" d="M496.41,-296.88C507.85,-287.62 520.41,-277.45 532.28,-267.85"/>
<polygon fill="black" stroke="black" points="534.8,-270.31 540.37,-261.3 530.39,-264.87 534.8,-270.31"/>
<text text-anchor="middle" x="537.75" y="-282.46" font-family="Helvetica,sans-Serif" font-size="14.00">False</text>
</g>
<!-- 2 -->
<g id="node3" class="node">
<title>2</title>
<path fill="#f5cdb0" stroke="black" d="M203.5,-157C203.5,-157 121.5,-157 121.5,-157 115.5,-157 109.5,-151 109.5,-145 109.5,-145 109.5,-101 109.5,-101 109.5,-95 115.5,-89 121.5,-89 121.5,-89 203.5,-89 203.5,-89 209.5,-89 215.5,-95 215.5,-101 215.5,-101 215.5,-145 215.5,-145 215.5,-151 209.5,-157 203.5,-157"/>
<text text-anchor="start" x="126" y="-141.8" font-family="Helvetica,sans-Serif" font-size="14.00">DIS ≤ 1.485</text>
<text text-anchor="start" x="120.5" y="-126.8" font-family="Helvetica,sans-Serif" font-size="14.00">mse = 40.799</text>
<text text-anchor="start" x="117.5" y="-111.8" font-family="Helvetica,sans-Serif" font-size="14.00">samples = 147</text>
<text text-anchor="start" x="117.5" y="-96.8" font-family="Helvetica,sans-Serif" font-size="14.00">value = 27.465</text>
</g>
<!-- 1&#45;&gt;2 -->
<g id="edge2" class="edge">
<title>1&#45;&gt;2</title>
<path fill="none" stroke="black" d="M285.22,-195.12C266,-183.99 244.16,-171.33 224.28,-159.81"/>
<polygon fill="black" stroke="black" points="226.01,-156.76 215.6,-154.78 222.5,-162.82 226.01,-156.76"/>
</g>
<!-- 5 -->
<g id="node6" class="node">
<title>5</title>
<path fill="#e99457" stroke="black" d="M379.5,-157C379.5,-157 297.5,-157 297.5,-157 291.5,-157 285.5,-151 285.5,-145 285.5,-145 285.5,-101 285.5,-101 285.5,-95 291.5,-89 297.5,-89 297.5,-89 379.5,-89 379.5,-89 385.5,-89 391.5,-95 391.5,-101 391.5,-101 391.5,-145 391.5,-145 391.5,-151 385.5,-157 379.5,-157"/>
<text text-anchor="start" x="302.5" y="-141.8" font-family="Helvetica,sans-Serif" font-size="14.00">RM ≤ 8.589</text>
<text text-anchor="start" x="296.5" y="-126.8" font-family="Helvetica,sans-Serif" font-size="14.00">mse = 43.794</text>
<text text-anchor="start" x="297.5" y="-111.8" font-family="Helvetica,sans-Serif" font-size="14.00">samples = 22</text>
<text text-anchor="start" x="293.5" y="-96.8" font-family="Helvetica,sans-Serif" font-size="14.00">value = 44.318</text>
</g>
<!-- 1&#45;&gt;5 -->
<g id="edge5" class="edge">
<title>1&#45;&gt;5</title>
<path fill="none" stroke="black" d="M338.5,-192.88C338.5,-184.78 338.5,-175.98 338.5,-167.47"/>
<polygon fill="black" stroke="black" points="342,-167.3 338.5,-157.3 335,-167.3 342,-167.3"/>
</g>
<!-- 3 -->
<g id="node4" class="node">
<title>3</title>
<path fill="#e58139" stroke="black" d="M79,-53C79,-53 12,-53 12,-53 6,-53 0,-47 0,-41 0,-41 0,-12 0,-12 0,-6 6,0 12,0 12,0 79,0 79,0 85,0 91,-6 91,-12 91,-12 91,-41 91,-41 91,-47 85,-53 79,-53"/>
<text text-anchor="start" x="15" y="-37.8" font-family="Helvetica,sans-Serif" font-size="14.00">mse = 0.0</text>
<text text-anchor="start" x="8" y="-22.8" font-family="Helvetica,sans-Serif" font-size="14.00">samples = 4</text>
<text text-anchor="start" x="8" y="-7.8" font-family="Helvetica,sans-Serif" font-size="14.00">value = 50.0</text>
</g>
<!-- 2&#45;&gt;3 -->
<g id="edge3" class="edge">
<title>2&#45;&gt;3</title>
<path fill="none" stroke="black" d="M121.58,-88.95C109.8,-79.43 96.97,-69.07 85.26,-59.62"/>
<polygon fill="black" stroke="black" points="87.34,-56.8 77.36,-53.24 82.94,-62.24 87.34,-56.8"/>
</g>
<!-- 4 -->
<g id="node5" class="node">
<title>4</title>
<path fill="#f5cfb3" stroke="black" d="M203.5,-53C203.5,-53 121.5,-53 121.5,-53 115.5,-53 109.5,-47 109.5,-41 109.5,-41 109.5,-12 109.5,-12 109.5,-6 115.5,0 121.5,0 121.5,0 203.5,0 203.5,0 209.5,0 215.5,-6 215.5,-12 215.5,-12 215.5,-41 215.5,-41 215.5,-47 209.5,-53 203.5,-53"/>
<text text-anchor="start" x="120.5" y="-37.8" font-family="Helvetica,sans-Serif" font-size="14.00">mse = 27.338</text>
<text text-anchor="start" x="117.5" y="-22.8" font-family="Helvetica,sans-Serif" font-size="14.00">samples = 143</text>
<text text-anchor="start" x="117.5" y="-7.8" font-family="Helvetica,sans-Serif" font-size="14.00">value = 26.834</text>
</g>
<!-- 2&#45;&gt;4 -->
<g id="edge4" class="edge">
<title>2&#45;&gt;4</title>
<path fill="none" stroke="black" d="M162.5,-88.95C162.5,-80.72 162.5,-71.85 162.5,-63.48"/>
<polygon fill="black" stroke="black" points="166,-63.24 162.5,-53.24 159,-63.24 166,-63.24"/>
</g>
<!-- 6 -->
<g id="node7" class="node">
<title>6</title>
<path fill="#e89151" stroke="black" d="M327.5,-53C327.5,-53 245.5,-53 245.5,-53 239.5,-53 233.5,-47 233.5,-41 233.5,-41 233.5,-12 233.5,-12 233.5,-6 239.5,0 245.5,0 245.5,0 327.5,0 327.5,0 333.5,0 339.5,-6 339.5,-12 339.5,-12 339.5,-41 339.5,-41 339.5,-47 333.5,-53 327.5,-53"/>
<text text-anchor="start" x="244.5" y="-37.8" font-family="Helvetica,sans-Serif" font-size="14.00">mse = 20.808</text>
<text text-anchor="start" x="245.5" y="-22.8" font-family="Helvetica,sans-Serif" font-size="14.00">samples = 21</text>
<text text-anchor="start" x="241.5" y="-7.8" font-family="Helvetica,sans-Serif" font-size="14.00">value = 45.386</text>
</g>
<!-- 5&#45;&gt;6 -->
<g id="edge6" class="edge">
<title>5&#45;&gt;6</title>
<path fill="none" stroke="black" d="M320.31,-88.95C315.53,-80.26 310.36,-70.86 305.53,-62.09"/>
<polygon fill="black" stroke="black" points="308.55,-60.31 300.66,-53.24 302.42,-63.69 308.55,-60.31"/>
</g>
<!-- 7 -->
<g id="node8" class="node">
<title>7</title>
<path fill="#f8dfcd" stroke="black" d="M437,-53C437,-53 370,-53 370,-53 364,-53 358,-47 358,-41 358,-41 358,-12 358,-12 358,-6 364,0 370,0 370,0 437,0 437,0 443,0 449,-6 449,-12 449,-12 449,-41 449,-41 449,-47 443,-53 437,-53"/>
<text text-anchor="start" x="373" y="-37.8" font-family="Helvetica,sans-Serif" font-size="14.00">mse = 0.0</text>
<text text-anchor="start" x="366" y="-22.8" font-family="Helvetica,sans-Serif" font-size="14.00">samples = 1</text>
<text text-anchor="start" x="366" y="-7.8" font-family="Helvetica,sans-Serif" font-size="14.00">value = 21.9</text>
</g>
<!-- 5&#45;&gt;7 -->
<g id="edge7" class="edge">
<title>5&#45;&gt;7</title>
<path fill="none" stroke="black" d="M361.23,-88.95C367.34,-80.07 373.95,-70.46 380.09,-61.54"/>
<polygon fill="black" stroke="black" points="383.01,-63.46 385.8,-53.24 377.25,-59.49 383.01,-63.46"/>
</g>
<!-- 9 -->
<g id="node10" class="node">
<title>9</title>
<path fill="#fae5d6" stroke="black" d="M623.5,-157C623.5,-157 539.5,-157 539.5,-157 533.5,-157 527.5,-151 527.5,-145 527.5,-145 527.5,-101 527.5,-101 527.5,-95 533.5,-89 539.5,-89 539.5,-89 623.5,-89 623.5,-89 629.5,-89 635.5,-95 635.5,-101 635.5,-101 635.5,-145 635.5,-145 635.5,-151 629.5,-157 623.5,-157"/>
<text text-anchor="start" x="535.5" y="-141.8" font-family="Helvetica,sans-Serif" font-size="14.00">INDUS ≤ 3.985</text>
<text text-anchor="start" x="543.5" y="-126.8" font-family="Helvetica,sans-Serif" font-size="14.00">mse = 9.361</text>
<text text-anchor="start" x="536.5" y="-111.8" font-family="Helvetica,sans-Serif" font-size="14.00">samples = 118</text>
<text text-anchor="start" x="536.5" y="-96.8" font-family="Helvetica,sans-Serif" font-size="14.00">value = 20.343</text>
</g>
<!-- 8&#45;&gt;9 -->
<g id="edge9" class="edge">
<title>8&#45;&gt;9</title>
<path fill="none" stroke="black" d="M581.5,-192.88C581.5,-184.78 581.5,-175.98 581.5,-167.47"/>
<polygon fill="black" stroke="black" points="585,-167.3 581.5,-157.3 578,-167.3 585,-167.3"/>
</g>
<!-- 12 -->
<g id="node13" class="node">
<title>12</title>
<path fill="#fef9f5" stroke="black" d="M809.5,-157C809.5,-157 727.5,-157 727.5,-157 721.5,-157 715.5,-151 715.5,-145 715.5,-145 715.5,-101 715.5,-101 715.5,-95 721.5,-89 727.5,-89 727.5,-89 809.5,-89 809.5,-89 815.5,-89 821.5,-95 821.5,-101 821.5,-101 821.5,-145 821.5,-145 821.5,-151 815.5,-157 809.5,-157"/>
<text text-anchor="start" x="728.5" y="-141.8" font-family="Helvetica,sans-Serif" font-size="14.00">NOX ≤ 0.603</text>
<text text-anchor="start" x="726.5" y="-126.8" font-family="Helvetica,sans-Serif" font-size="14.00">mse = 19.417</text>
<text text-anchor="start" x="723.5" y="-111.8" font-family="Helvetica,sans-Serif" font-size="14.00">samples = 117</text>
<text text-anchor="start" x="723.5" y="-96.8" font-family="Helvetica,sans-Serif" font-size="14.00">value = 14.412</text>
</g>
<!-- 8&#45;&gt;12 -->
<g id="edge12" class="edge">
<title>8&#45;&gt;12</title>
<path fill="none" stroke="black" d="M639.64,-194.29C660.84,-182.72 684.89,-169.6 706.42,-157.86"/>
<polygon fill="black" stroke="black" points="708.38,-160.78 715.48,-152.92 705.02,-154.64 708.38,-160.78"/>
</g>
<!-- 10 -->
<g id="node11" class="node">
<title>10</title>
<path fill="#f6d5bc" stroke="black" d="M561.5,-53C561.5,-53 479.5,-53 479.5,-53 473.5,-53 467.5,-47 467.5,-41 467.5,-41 467.5,-12 467.5,-12 467.5,-6 473.5,0 479.5,0 479.5,0 561.5,0 561.5,0 567.5,0 573.5,-6 573.5,-12 573.5,-12 573.5,-41 573.5,-41 573.5,-47 567.5,-53 561.5,-53"/>
<text text-anchor="start" x="478.5" y="-37.8" font-family="Helvetica,sans-Serif" font-size="14.00">mse = 20.712</text>
<text text-anchor="start" x="483" y="-22.8" font-family="Helvetica,sans-Serif" font-size="14.00">samples = 8</text>
<text text-anchor="start" x="475.5" y="-7.8" font-family="Helvetica,sans-Serif" font-size="14.00">value = 25.162</text>
</g>
<!-- 9&#45;&gt;10 -->
<g id="edge10" class="edge">
<title>9&#45;&gt;10</title>
<path fill="none" stroke="black" d="M560.17,-88.95C554.5,-80.17 548.36,-70.66 542.65,-61.82"/>
<polygon fill="black" stroke="black" points="545.48,-59.74 537.11,-53.24 539.6,-63.54 545.48,-59.74"/>
</g>
<!-- 11 -->
<g id="node12" class="node">
<title>11</title>
<path fill="#fae6d8" stroke="black" d="M685.5,-53C685.5,-53 603.5,-53 603.5,-53 597.5,-53 591.5,-47 591.5,-41 591.5,-41 591.5,-12 591.5,-12 591.5,-6 597.5,0 603.5,0 603.5,0 685.5,0 685.5,0 691.5,0 697.5,-6 697.5,-12 697.5,-12 697.5,-41 697.5,-41 697.5,-47 691.5,-53 685.5,-53"/>
<text text-anchor="start" x="606.5" y="-37.8" font-family="Helvetica,sans-Serif" font-size="14.00">mse = 6.724</text>
<text text-anchor="start" x="599.5" y="-22.8" font-family="Helvetica,sans-Serif" font-size="14.00">samples = 110</text>
<text text-anchor="start" x="599.5" y="-7.8" font-family="Helvetica,sans-Serif" font-size="14.00">value = 19.993</text>
</g>
<!-- 9&#45;&gt;11 -->
<g id="edge11" class="edge">
<title>9&#45;&gt;11</title>
<path fill="none" stroke="black" d="M603.53,-88.95C609.39,-80.17 615.72,-70.66 621.62,-61.82"/>
<polygon fill="black" stroke="black" points="624.71,-63.5 627.34,-53.24 618.88,-59.62 624.71,-63.5"/>
</g>
<!-- 13 -->
<g id="node14" class="node">
<title>13</title>
<path fill="#fbede3" stroke="black" d="M809.5,-53C809.5,-53 727.5,-53 727.5,-53 721.5,-53 715.5,-47 715.5,-41 715.5,-41 715.5,-12 715.5,-12 715.5,-6 721.5,0 727.5,0 727.5,0 809.5,0 809.5,0 815.5,0 821.5,-6 821.5,-12 821.5,-12 821.5,-41 821.5,-41 821.5,-47 815.5,-53 809.5,-53"/>
<text text-anchor="start" x="726.5" y="-37.8" font-family="Helvetica,sans-Serif" font-size="14.00">mse = 12.584</text>
<text text-anchor="start" x="727.5" y="-22.8" font-family="Helvetica,sans-Serif" font-size="14.00">samples = 42</text>
<text text-anchor="start" x="723.5" y="-7.8" font-family="Helvetica,sans-Serif" font-size="14.00">value = 17.769</text>
</g>
<!-- 12&#45;&gt;13 -->
<g id="edge13" class="edge">
<title>12&#45;&gt;13</title>
<path fill="none" stroke="black" d="M768.5,-88.95C768.5,-80.72 768.5,-71.85 768.5,-63.48"/>
<polygon fill="black" stroke="black" points="772,-63.24 768.5,-53.24 765,-63.24 772,-63.24"/>
</g>
<!-- 14 -->
<g id="node15" class="node">
<title>14</title>
<path fill="#ffffff" stroke="black" d="M933.5,-53C933.5,-53 851.5,-53 851.5,-53 845.5,-53 839.5,-47 839.5,-41 839.5,-41 839.5,-12 839.5,-12 839.5,-6 845.5,0 851.5,0 851.5,0 933.5,0 933.5,0 939.5,0 945.5,-6 945.5,-12 945.5,-12 945.5,-41 945.5,-41 945.5,-47 939.5,-53 933.5,-53"/>
<text text-anchor="start" x="850.5" y="-37.8" font-family="Helvetica,sans-Serif" font-size="14.00">mse = 13.398</text>
<text text-anchor="start" x="851.5" y="-22.8" font-family="Helvetica,sans-Serif" font-size="14.00">samples = 75</text>
<text text-anchor="start" x="847.5" y="-7.8" font-family="Helvetica,sans-Serif" font-size="14.00">value = 12.532</text>
</g>
<!-- 12&#45;&gt;14 -->
<g id="edge14" class="edge">
<title>12&#45;&gt;14</title>
<path fill="none" stroke="black" d="M811.87,-88.95C824.47,-79.34 838.21,-68.87 850.71,-59.34"/>
<polygon fill="black" stroke="black" points="852.9,-62.08 858.73,-53.24 848.65,-56.51 852.9,-62.08"/>
</g>
</g>
</svg>
