<?xml version="1.0" encoding="UTF-8" standalone="no"?>
<!DOCTYPE svg PUBLIC "-//W3C//DTD SVG 1.1//EN"
 "http://www.w3.org/Graphics/SVG/1.1/DTD/svg11.dtd">
<!-- Generated by graphviz version 2.42.3 (20191010.1750)
 -->
<!-- Title: Tree Pages: 1 -->
<svg width="659pt" height="671pt"
 viewBox="0.00 0.00 659.00 671.00" xmlns="http://www.w3.org/2000/svg" xmlns:xlink="http://www.w3.org/1999/xlink">
<g id="graph0" class="graph" transform="scale(1 1) rotate(0) translate(4 667)">
<title>Tree</title>
<polygon fill="white" stroke="transparent" points="-4,4 -4,-667 655,-667 655,4 -4,4"/>
<!-- 0 -->
<g id="node1" class="node">
<title>0</title>
<path fill="#f7f3fd" stroke="black" d="M337,-663C337,-663 214,-663 214,-663 208,-663 202,-657 202,-651 202,-651 202,-592 202,-592 202,-586 208,-580 214,-580 214,-580 337,-580 337,-580 343,-580 349,-586 349,-592 349,-592 349,-651 349,-651 349,-657 343,-663 337,-663"/>
<text text-anchor="start" x="210" y="-647.8" font-family="Helvetica,sans-Serif" font-size="14.00">petal width (cm) ≤ 0.8</text>
<text text-anchor="start" x="240" y="-632.8" font-family="Helvetica,sans-Serif" font-size="14.00">gini = 0.665</text>
<text text-anchor="start" x="230.5" y="-617.8" font-family="Helvetica,sans-Serif" font-size="14.00">samples = 120</text>
<text text-anchor="start" x="217.5" y="-602.8" font-family="Helvetica,sans-Serif" font-size="14.00">value = [39, 37, 44]</text>
<text text-anchor="start" x="227" y="-587.8" font-family="Helvetica,sans-Serif" font-size="14.00">class = virginica</text>
</g>
<!-- 1 -->
<g id="node2" class="node">
<title>1</title>
<path fill="#e58139" stroke="black" d="M245,-536.5C245,-536.5 152,-536.5 152,-536.5 146,-536.5 140,-530.5 140,-524.5 140,-524.5 140,-480.5 140,-480.5 140,-474.5 146,-468.5 152,-468.5 152,-468.5 245,-468.5 245,-468.5 251,-468.5 257,-474.5 257,-480.5 257,-480.5 257,-524.5 257,-524.5 257,-530.5 251,-536.5 245,-536.5"/>
<text text-anchor="start" x="170.5" y="-521.3" font-family="Helvetica,sans-Serif" font-size="14.00">gini = 0.0</text>
<text text-anchor="start" x="157.5" y="-506.3" font-family="Helvetica,sans-Serif" font-size="14.00">samples = 39</text>
<text text-anchor="start" x="148" y="-491.3" font-family="Helvetica,sans-Serif" font-size="14.00">value = [39, 0, 0]</text>
<text text-anchor="start" x="155" y="-476.3" font-family="Helvetica,sans-Serif" font-size="14.00">class = setosa</text>
</g>
<!-- 0&#45;&gt;1 -->
<g id="edge1" class="edge">
<title>0&#45;&gt;1</title>
<path fill="none" stroke="black" d="M248.79,-579.91C241.38,-568.65 233.33,-556.42 225.88,-545.11"/>
<polygon fill="black" stroke="black" points="228.75,-543.1 220.33,-536.67 222.9,-546.94 228.75,-543.1"/>
<text text-anchor="middle" x="215.28" y="-557.45" font-family="Helvetica,sans-Serif" font-size="14.00">True</text>
</g>
<!-- 2 -->
<g id="node3" class="node">
<title>2</title>
<path fill="#ebe0fb" stroke="black" d="M418,-544C418,-544 287,-544 287,-544 281,-544 275,-538 275,-532 275,-532 275,-473 275,-473 275,-467 281,-461 287,-461 287,-461 418,-461 418,-461 424,-461 430,-467 430,-473 430,-473 430,-532 430,-532 430,-538 424,-544 418,-544"/>
<text text-anchor="start" x="283" y="-528.8" font-family="Helvetica,sans-Serif" font-size="14.00">petal width (cm) ≤ 1.65</text>
<text text-anchor="start" x="317" y="-513.8" font-family="Helvetica,sans-Serif" font-size="14.00">gini = 0.496</text>
<text text-anchor="start" x="311.5" y="-498.8" font-family="Helvetica,sans-Serif" font-size="14.00">samples = 81</text>
<text text-anchor="start" x="298" y="-483.8" font-family="Helvetica,sans-Serif" font-size="14.00">value = [0, 37, 44]</text>
<text text-anchor="start" x="304" y="-468.8" font-family="Helvetica,sans-Serif" font-size="14.00">class = virginica</text>
</g>
<!-- 0&#45;&gt;2 -->
<g id="edge2" class="edge">
<title>0&#45;&gt;2</title>
<path fill="none" stroke="black" d="M302.21,-579.91C308.01,-571.1 314.2,-561.7 320.18,-552.61"/>
<polygon fill="black" stroke="black" points="323.26,-554.3 325.83,-544.02 317.41,-550.45 323.26,-554.3"/>
<text text-anchor="middle" x="330.88" y="-564.81" font-family="Helvetica,sans-Serif" font-size="14.00">False</text>
</g>
<!-- 3 -->
<g id="node4" class="node">
<title>3</title>
<path fill="#4fe88f" stroke="black" d="M331.5,-425C331.5,-425 195.5,-425 195.5,-425 189.5,-425 183.5,-419 183.5,-413 183.5,-413 183.5,-354 183.5,-354 183.5,-348 189.5,-342 195.5,-342 195.5,-342 331.5,-342 331.5,-342 337.5,-342 343.5,-348 343.5,-354 343.5,-354 343.5,-413 343.5,-413 343.5,-419 337.5,-425 331.5,-425"/>
<text text-anchor="start" x="191.5" y="-409.8" font-family="Helvetica,sans-Serif" font-size="14.00">petal length (cm) ≤ 4.95</text>
<text text-anchor="start" x="231.5" y="-394.8" font-family="Helvetica,sans-Serif" font-size="14.00">gini = 0.18</text>
<text text-anchor="start" x="222.5" y="-379.8" font-family="Helvetica,sans-Serif" font-size="14.00">samples = 40</text>
<text text-anchor="start" x="213" y="-364.8" font-family="Helvetica,sans-Serif" font-size="14.00">value = [0, 36, 4]</text>
<text text-anchor="start" x="211" y="-349.8" font-family="Helvetica,sans-Serif" font-size="14.00">class = versicolor</text>
</g>
<!-- 2&#45;&gt;3 -->
<g id="edge3" class="edge">
<title>2&#45;&gt;3</title>
<path fill="none" stroke="black" d="M321.62,-460.91C314.79,-451.92 307.48,-442.32 300.43,-433.05"/>
<polygon fill="black" stroke="black" points="303.16,-430.86 294.32,-425.02 297.59,-435.1 303.16,-430.86"/>
</g>
<!-- 10 -->
<g id="node11" class="node">
<title>10</title>
<path fill="#843ee6" stroke="black" d="M509.5,-425C509.5,-425 373.5,-425 373.5,-425 367.5,-425 361.5,-419 361.5,-413 361.5,-413 361.5,-354 361.5,-354 361.5,-348 367.5,-342 373.5,-342 373.5,-342 509.5,-342 509.5,-342 515.5,-342 521.5,-348 521.5,-354 521.5,-354 521.5,-413 521.5,-413 521.5,-419 515.5,-425 509.5,-425"/>
<text text-anchor="start" x="369.5" y="-409.8" font-family="Helvetica,sans-Serif" font-size="14.00">petal length (cm) ≤ 4.85</text>
<text text-anchor="start" x="406" y="-394.8" font-family="Helvetica,sans-Serif" font-size="14.00">gini = 0.048</text>
<text text-anchor="start" x="400.5" y="-379.8" font-family="Helvetica,sans-Serif" font-size="14.00">samples = 41</text>
<text text-anchor="start" x="391" y="-364.8" font-family="Helvetica,sans-Serif" font-size="14.00">value = [0, 1, 40]</text>
<text text-anchor="start" x="393" y="-349.8" font-family="Helvetica,sans-Serif" font-size="14.00">class = virginica</text>
</g>
<!-- 2&#45;&gt;10 -->
<g id="edge10" class="edge">
<title>2&#45;&gt;10</title>
<path fill="none" stroke="black" d="M383.38,-460.91C390.21,-451.92 397.52,-442.32 404.57,-433.05"/>
<polygon fill="black" stroke="black" points="407.41,-435.1 410.68,-425.02 401.84,-430.86 407.41,-435.1"/>
</g>
<!-- 4 -->
<g id="node5" class="node">
<title>4</title>
<path fill="#39e581" stroke="black" d="M153,-298.5C153,-298.5 56,-298.5 56,-298.5 50,-298.5 44,-292.5 44,-286.5 44,-286.5 44,-242.5 44,-242.5 44,-236.5 50,-230.5 56,-230.5 56,-230.5 153,-230.5 153,-230.5 159,-230.5 165,-236.5 165,-242.5 165,-242.5 165,-286.5 165,-286.5 165,-292.5 159,-298.5 153,-298.5"/>
<text text-anchor="start" x="76.5" y="-283.3" font-family="Helvetica,sans-Serif" font-size="14.00">gini = 0.0</text>
<text text-anchor="start" x="63.5" y="-268.3" font-family="Helvetica,sans-Serif" font-size="14.00">samples = 35</text>
<text text-anchor="start" x="54" y="-253.3" font-family="Helvetica,sans-Serif" font-size="14.00">value = [0, 35, 0]</text>
<text text-anchor="start" x="52" y="-238.3" font-family="Helvetica,sans-Serif" font-size="14.00">class = versicolor</text>
</g>
<!-- 3&#45;&gt;4 -->
<g id="edge4" class="edge">
<title>3&#45;&gt;4</title>
<path fill="none" stroke="black" d="M208.34,-341.91C191.99,-329.88 174.13,-316.73 157.9,-304.79"/>
<polygon fill="black" stroke="black" points="159.7,-301.77 149.57,-298.67 155.55,-307.41 159.7,-301.77"/>
</g>
<!-- 5 -->
<g id="node6" class="node">
<title>5</title>
<path fill="#a06aec" stroke="black" d="M334,-306C334,-306 195,-306 195,-306 189,-306 183,-300 183,-294 183,-294 183,-235 183,-235 183,-229 189,-223 195,-223 195,-223 334,-223 334,-223 340,-223 346,-229 346,-235 346,-235 346,-294 346,-294 346,-300 340,-306 334,-306"/>
<text text-anchor="start" x="191" y="-290.8" font-family="Helvetica,sans-Serif" font-size="14.00">sepal length (cm) ≤ 6.05</text>
<text text-anchor="start" x="232.5" y="-275.8" font-family="Helvetica,sans-Serif" font-size="14.00">gini = 0.32</text>
<text text-anchor="start" x="227" y="-260.8" font-family="Helvetica,sans-Serif" font-size="14.00">samples = 5</text>
<text text-anchor="start" x="217.5" y="-245.8" font-family="Helvetica,sans-Serif" font-size="14.00">value = [0, 1, 4]</text>
<text text-anchor="start" x="216" y="-230.8" font-family="Helvetica,sans-Serif" font-size="14.00">class = virginica</text>
</g>
<!-- 3&#45;&gt;5 -->
<g id="edge5" class="edge">
<title>3&#45;&gt;5</title>
<path fill="none" stroke="black" d="M263.85,-341.91C263.92,-333.65 263.99,-324.86 264.07,-316.3"/>
<polygon fill="black" stroke="black" points="267.57,-316.05 264.15,-306.02 260.57,-315.99 267.57,-316.05"/>
</g>
<!-- 6 -->
<g id="node7" class="node">
<title>6</title>
<path fill="#ffffff" stroke="black" d="M189,-187C189,-187 58,-187 58,-187 52,-187 46,-181 46,-175 46,-175 46,-116 46,-116 46,-110 52,-104 58,-104 58,-104 189,-104 189,-104 195,-104 201,-110 201,-116 201,-116 201,-175 201,-175 201,-181 195,-187 189,-187"/>
<text text-anchor="start" x="54" y="-171.8" font-family="Helvetica,sans-Serif" font-size="14.00">petal width (cm) ≤ 1.55</text>
<text text-anchor="start" x="95.5" y="-156.8" font-family="Helvetica,sans-Serif" font-size="14.00">gini = 0.5</text>
<text text-anchor="start" x="86" y="-141.8" font-family="Helvetica,sans-Serif" font-size="14.00">samples = 2</text>
<text text-anchor="start" x="76.5" y="-126.8" font-family="Helvetica,sans-Serif" font-size="14.00">value = [0, 1, 1]</text>
<text text-anchor="start" x="71" y="-111.8" font-family="Helvetica,sans-Serif" font-size="14.00">class = versicolor</text>
</g>
<!-- 5&#45;&gt;6 -->
<g id="edge6" class="edge">
<title>5&#45;&gt;6</title>
<path fill="none" stroke="black" d="M215.58,-222.91C204.21,-213.47 192,-203.34 180.32,-193.65"/>
<polygon fill="black" stroke="black" points="182.26,-190.71 172.33,-187.02 177.79,-196.1 182.26,-190.71"/>
</g>
<!-- 9 -->
<g id="node10" class="node">
<title>9</title>
<path fill="#8139e5" stroke="black" d="M320,-179.5C320,-179.5 231,-179.5 231,-179.5 225,-179.5 219,-173.5 219,-167.5 219,-167.5 219,-123.5 219,-123.5 219,-117.5 225,-111.5 231,-111.5 231,-111.5 320,-111.5 320,-111.5 326,-111.5 332,-117.5 332,-123.5 332,-123.5 332,-167.5 332,-167.5 332,-173.5 326,-179.5 320,-179.5"/>
<text text-anchor="start" x="247.5" y="-164.3" font-family="Helvetica,sans-Serif" font-size="14.00">gini = 0.0</text>
<text text-anchor="start" x="238" y="-149.3" font-family="Helvetica,sans-Serif" font-size="14.00">samples = 3</text>
<text text-anchor="start" x="228.5" y="-134.3" font-family="Helvetica,sans-Serif" font-size="14.00">value = [0, 0, 3]</text>
<text text-anchor="start" x="227" y="-119.3" font-family="Helvetica,sans-Serif" font-size="14.00">class = virginica</text>
</g>
<!-- 5&#45;&gt;9 -->
<g id="edge9" class="edge">
<title>5&#45;&gt;9</title>
<path fill="none" stroke="black" d="M268.32,-222.91C269.32,-212.2 270.41,-200.62 271.43,-189.78"/>
<polygon fill="black" stroke="black" points="274.93,-189.95 272.38,-179.67 267.96,-189.3 274.93,-189.95"/>
</g>
<!-- 7 -->
<g id="node8" class="node">
<title>7</title>
<path fill="#8139e5" stroke="black" d="M101,-68C101,-68 12,-68 12,-68 6,-68 0,-62 0,-56 0,-56 0,-12 0,-12 0,-6 6,0 12,0 12,0 101,0 101,0 107,0 113,-6 113,-12 113,-12 113,-56 113,-56 113,-62 107,-68 101,-68"/>
<text text-anchor="start" x="28.5" y="-52.8" font-family="Helvetica,sans-Serif" font-size="14.00">gini = 0.0</text>
<text text-anchor="start" x="19" y="-37.8" font-family="Helvetica,sans-Serif" font-size="14.00">samples = 1</text>
<text text-anchor="start" x="9.5" y="-22.8" font-family="Helvetica,sans-Serif" font-size="14.00">value = [0, 0, 1]</text>
<text text-anchor="start" x="8" y="-7.8" font-family="Helvetica,sans-Serif" font-size="14.00">class = virginica</text>
</g>
<!-- 6&#45;&gt;7 -->
<g id="edge7" class="edge">
<title>6&#45;&gt;7</title>
<path fill="none" stroke="black" d="M98.55,-103.73C93.19,-94.97 87.52,-85.7 82.14,-76.91"/>
<polygon fill="black" stroke="black" points="85.08,-75 76.88,-68.3 79.11,-78.66 85.08,-75"/>
</g>
<!-- 8 -->
<g id="node9" class="node">
<title>8</title>
<path fill="#39e581" stroke="black" d="M240,-68C240,-68 143,-68 143,-68 137,-68 131,-62 131,-56 131,-56 131,-12 131,-12 131,-6 137,0 143,0 143,0 240,0 240,0 246,0 252,-6 252,-12 252,-12 252,-56 252,-56 252,-62 246,-68 240,-68"/>
<text text-anchor="start" x="163.5" y="-52.8" font-family="Helvetica,sans-Serif" font-size="14.00">gini = 0.0</text>
<text text-anchor="start" x="154" y="-37.8" font-family="Helvetica,sans-Serif" font-size="14.00">samples = 1</text>
<text text-anchor="start" x="144.5" y="-22.8" font-family="Helvetica,sans-Serif" font-size="14.00">value = [0, 1, 0]</text>
<text text-anchor="start" x="139" y="-7.8" font-family="Helvetica,sans-Serif" font-size="14.00">class = versicolor</text>
</g>
<!-- 6&#45;&gt;8 -->
<g id="edge8" class="edge">
<title>6&#45;&gt;8</title>
<path fill="none" stroke="black" d="M148.82,-103.73C154.26,-94.97 160.01,-85.7 165.48,-76.91"/>
<polygon fill="black" stroke="black" points="168.52,-78.64 170.82,-68.3 162.57,-74.95 168.52,-78.64"/>
</g>
<!-- 11 -->
<g id="node12" class="node">
<title>11</title>
<path fill="#ab7bee" stroke="black" d="M503.5,-306C503.5,-306 377.5,-306 377.5,-306 371.5,-306 365.5,-300 365.5,-294 365.5,-294 365.5,-235 365.5,-235 365.5,-229 371.5,-223 377.5,-223 377.5,-223 503.5,-223 503.5,-223 509.5,-223 515.5,-229 515.5,-235 515.5,-235 515.5,-294 515.5,-294 515.5,-300 509.5,-306 503.5,-306"/>
<text text-anchor="start" x="373.5" y="-290.8" font-family="Helvetica,sans-Serif" font-size="14.00">sepal width (cm) ≤ 3.1</text>
<text text-anchor="start" x="405" y="-275.8" font-family="Helvetica,sans-Serif" font-size="14.00">gini = 0.375</text>
<text text-anchor="start" x="403" y="-260.8" font-family="Helvetica,sans-Serif" font-size="14.00">samples = 4</text>
<text text-anchor="start" x="393.5" y="-245.8" font-family="Helvetica,sans-Serif" font-size="14.00">value = [0, 1, 3]</text>
<text text-anchor="start" x="392" y="-230.8" font-family="Helvetica,sans-Serif" font-size="14.00">class = virginica</text>
</g>
<!-- 10&#45;&gt;11 -->
<g id="edge11" class="edge">
<title>10&#45;&gt;11</title>
<path fill="none" stroke="black" d="M441.15,-341.91C441.08,-333.65 441.01,-324.86 440.93,-316.3"/>
<polygon fill="black" stroke="black" points="444.43,-315.99 440.85,-306.02 437.43,-316.05 444.43,-315.99"/>
</g>
<!-- 14 -->
<g id="node15" class="node">
<title>14</title>
<path fill="#8139e5" stroke="black" d="M639,-298.5C639,-298.5 546,-298.5 546,-298.5 540,-298.5 534,-292.5 534,-286.5 534,-286.5 534,-242.5 534,-242.5 534,-236.5 540,-230.5 546,-230.5 546,-230.5 639,-230.5 639,-230.5 645,-230.5 651,-236.5 651,-242.5 651,-242.5 651,-286.5 651,-286.5 651,-292.5 645,-298.5 639,-298.5"/>
<text text-anchor="start" x="564.5" y="-283.3" font-family="Helvetica,sans-Serif" font-size="14.00">gini = 0.0</text>
<text text-anchor="start" x="551.5" y="-268.3" font-family="Helvetica,sans-Serif" font-size="14.00">samples = 37</text>
<text text-anchor="start" x="542" y="-253.3" font-family="Helvetica,sans-Serif" font-size="14.00">value = [0, 0, 37]</text>
<text text-anchor="start" x="544" y="-238.3" font-family="Helvetica,sans-Serif" font-size="14.00">class = virginica</text>
</g>
<!-- 10&#45;&gt;14 -->
<g id="edge14" class="edge">
<title>10&#45;&gt;14</title>
<path fill="none" stroke="black" d="M493.89,-341.91C509.27,-329.99 526.07,-316.98 541.37,-305.12"/>
<polygon fill="black" stroke="black" points="543.93,-307.56 549.69,-298.67 539.65,-302.03 543.93,-307.56"/>
</g>
<!-- 12 -->
<g id="node13" class="node">
<title>12</title>
<path fill="#8139e5" stroke="black" d="M474,-179.5C474,-179.5 385,-179.5 385,-179.5 379,-179.5 373,-173.5 373,-167.5 373,-167.5 373,-123.5 373,-123.5 373,-117.5 379,-111.5 385,-111.5 385,-111.5 474,-111.5 474,-111.5 480,-111.5 486,-117.5 486,-123.5 486,-123.5 486,-167.5 486,-167.5 486,-173.5 480,-179.5 474,-179.5"/>
<text text-anchor="start" x="401.5" y="-164.3" font-family="Helvetica,sans-Serif" font-size="14.00">gini = 0.0</text>
<text text-anchor="start" x="392" y="-149.3" font-family="Helvetica,sans-Serif" font-size="14.00">samples = 3</text>
<text text-anchor="start" x="382.5" y="-134.3" font-family="Helvetica,sans-Serif" font-size="14.00">value = [0, 0, 3]</text>
<text text-anchor="start" x="381" y="-119.3" font-family="Helvetica,sans-Serif" font-size="14.00">class = virginica</text>
</g>
<!-- 11&#45;&gt;12 -->
<g id="edge12" class="edge">
<title>11&#45;&gt;12</title>
<path fill="none" stroke="black" d="M436.68,-222.91C435.68,-212.2 434.59,-200.62 433.57,-189.78"/>
<polygon fill="black" stroke="black" points="437.04,-189.3 432.62,-179.67 430.07,-189.95 437.04,-189.3"/>
</g>
<!-- 13 -->
<g id="node14" class="node">
<title>13</title>
<path fill="#39e581" stroke="black" d="M613,-179.5C613,-179.5 516,-179.5 516,-179.5 510,-179.5 504,-173.5 504,-167.5 504,-167.5 504,-123.5 504,-123.5 504,-117.5 510,-111.5 516,-111.5 516,-111.5 613,-111.5 613,-111.5 619,-111.5 625,-117.5 625,-123.5 625,-123.5 625,-167.5 625,-167.5 625,-173.5 619,-179.5 613,-179.5"/>
<text text-anchor="start" x="536.5" y="-164.3" font-family="Helvetica,sans-Serif" font-size="14.00">gini = 0.0</text>
<text text-anchor="start" x="527" y="-149.3" font-family="Helvetica,sans-Serif" font-size="14.00">samples = 1</text>
<text text-anchor="start" x="517.5" y="-134.3" font-family="Helvetica,sans-Serif" font-size="14.00">value = [0, 1, 0]</text>
<text text-anchor="start" x="512" y="-119.3" font-family="Helvetica,sans-Serif" font-size="14.00">class = versicolor</text>
</g>
<!-- 11&#45;&gt;13 -->
<g id="edge13" class="edge">
<title>11&#45;&gt;13</title>
<path fill="none" stroke="black" d="M483.52,-222.91C495.92,-211.21 509.43,-198.46 521.81,-186.78"/>
<polygon fill="black" stroke="black" points="524.48,-189.08 529.35,-179.67 519.67,-183.98 524.48,-189.08"/>
</g>
</g>
</svg>
